<svg xmlns="http://www.w3.org/2000/svg" viewBox="0 0 295.42 118.47"><defs><style>.cls-1{fill:#22418b;}</style></defs><g id="Layer_2" data-name="Layer 2"><g id="Layer_1-2" data-name="Layer 1"><polygon points="119.52 30.31 119.53 30.31 119.53 61.76 119.52 61.75 119.52 85.4 119.53 85.39 119.53 116.84 119.52 116.84 119.52 118.47 93.72 118.47 93.72 59.52 74.66 92.5 59.78 118.3 44.87 92.5 25.81 59.47 25.81 118.47 0 118.47 0 14.77 22.34 1.87 25.81 7.89 59.75 66.69 81.72 28.68 119.52 28.68 119.52 30.31"/><path d="M209.39,52.7,188.52,73.58l20.87,20.87A13.12,13.12,0,0,1,190.84,113L170,92.13,149.09,113a13.12,13.12,0,1,1-18.55-18.55l20.88-20.87L130.54,52.7a13.12,13.12,0,0,1,18.55-18.55L170,55l20.87-20.88A13.12,13.12,0,1,1,209.39,52.7Z"/><rect x="220.88" y="27.04" width="25.81" height="89.8"/><path d="M295.42,71.94a44.92,44.92,0,0,1-44.9,44.9V100.91a6.42,6.42,0,0,1,5-6.26,23.26,23.26,0,0,0,0-45.42,6.4,6.4,0,0,1-5-6.26V27A44.92,44.92,0,0,1,295.42,71.94Z"/><path class="cls-1" d="M119.53,12.9a12.66,12.66,0,0,1-3.35,8.63,1.79,1.79,0,0,1-.23.26,12.77,12.77,0,0,1-9.32,4H93.73V12.9a15.77,15.77,0,0,1,.2-2.32A10.24,10.24,0,0,1,94.36,9a10.1,10.1,0,0,1,1-2.21c.2-.35.4-.72.63-1.06a13.1,13.1,0,0,1,1.57-1.9,12.9,12.9,0,0,1,22,9.12Z"/><path class="cls-1" d="M116.21,21.56a1.79,1.79,0,0,1-.26.23,14.38,14.38,0,0,1-10,4H84.3l9.8-17,.26.15,21.82,12.58Z"/><path class="cls-1" d="M97.37,6.51,94.73,11l-.8-.46-.63-.37,2-3.47c.2-.35.4-.72.63-1.06Z"/><circle class="cls-1" cx="233.79" cy="12.9" r="12.9"/></g></g></svg>