<svg xmlns="http://www.w3.org/2000/svg" viewBox="0 0 325.04 204.1"><defs><style>.cls-1,.cls-5{fill:none;}.cls-2{fill:#4c4c4d;}.cls-3{fill:#333;}.cls-4{fill:#1e1e1e;}.cls-5{stroke:#232323;stroke-miterlimit:10;stroke-width:0.5px;}.cls-6{fill:#40403f;}</style></defs><g id="Layer_2" data-name="Layer 2"><g id="Layer_1-2" data-name="Layer 1"><rect class="cls-1" width="325.04" height="204.09" rx="12"/><path class="cls-2" d="M166.26,0C116.33,0,75.85,45.69,75.85,102.05S116.33,204.1,166.26,204.1s90.4-45.69,90.4-102S216.19,0,166.26,0Zm13.18,177c-36.66,0-66.4-33.55-66.4-74.94s29.74-74.94,66.4-74.94,66.39,33.55,66.39,74.94S216.11,177,179.44,177Z"/><rect class="cls-2" x="68.38" y="65.99" width="61.92" height="79.92" rx="17.52"/><rect class="cls-3" x="72.58" y="74.75" width="46.8" height="60.4" rx="12.07"/><path class="cls-4" d="M96.76,115a2.49,2.49,0,0,1,1.4.4,2.57,2.57,0,0,1,1,1.17,4.35,4.35,0,0,1,.36,1.84,4.12,4.12,0,0,1-.48,2.09,2.84,2.84,0,0,1-.93,1,2.11,2.11,0,0,1-1.12.36.77.77,0,0,1-.77-.78.63.63,0,0,1,.18-.46,1.37,1.37,0,0,1,.52-.33,4.41,4.41,0,0,0,.69-.35,1.51,1.51,0,0,0,.45-.54,2,2,0,0,0,.18-.91,2,2,0,0,0-.36-1.25,1.07,1.07,0,0,0-.9-.49,1,1,0,0,0-.7.26,1.75,1.75,0,0,0-.4.68,8.55,8.55,0,0,0-.3,1.1,7.81,7.81,0,0,1-.51,1.55,2.45,2.45,0,0,1-.79,1,2,2,0,0,1-1.24.37,2.1,2.1,0,0,1-1.26-.39,2.45,2.45,0,0,1-.85-1.12,4.52,4.52,0,0,1-.3-1.72,4.3,4.3,0,0,1,.2-1.37,2.94,2.94,0,0,1,.52-1,2.23,2.23,0,0,1,.68-.55,1.55,1.55,0,0,1,.7-.18.81.81,0,0,1,.56.22.7.7,0,0,1,.25.55.61.61,0,0,1-.15.45,1.78,1.78,0,0,1-.49.34,2.28,2.28,0,0,0-.76.56,1.66,1.66,0,0,0-.27,1.06,1.77,1.77,0,0,0,.3,1.08.84.84,0,0,0,.71.42.72.72,0,0,0,.44-.14,1.27,1.27,0,0,0,.33-.39,2.66,2.66,0,0,0,.21-.5c0-.17.12-.44.22-.83s.24-.92.37-1.32a4.44,4.44,0,0,1,.5-1,2.07,2.07,0,0,1,.74-.64A2.32,2.32,0,0,1,96.76,115Z"/><path class="cls-4" d="M96.63,106.21a2.32,2.32,0,0,1,.88.2,3.29,3.29,0,0,1,1.69,1.75,4,4,0,0,1,.29,1.57,5.8,5.8,0,0,1-.13,1.23,3.61,3.61,0,0,1-.4,1,3.54,3.54,0,0,1-.72.84,4.42,4.42,0,0,1-.91.58,4.65,4.65,0,0,1-1.07.36,5.81,5.81,0,0,1-1.2.12,5.42,5.42,0,0,1-1.86-.3,3.78,3.78,0,0,1-1.4-.87,3.63,3.63,0,0,1-.89-1.32,4.31,4.31,0,0,1-.31-1.61,4,4,0,0,1,.42-1.85,3.33,3.33,0,0,1,1-1.25,2,2,0,0,1,1.16-.44.75.75,0,0,1,.52.21.77.77,0,0,1,.07,1,2.12,2.12,0,0,1-.54.37,2.51,2.51,0,0,0-1,.8,1.93,1.93,0,0,0-.31,1.13,2.05,2.05,0,0,0,.81,1.71,3.72,3.72,0,0,0,2.32.63,4.23,4.23,0,0,0,1.66-.28,2.06,2.06,0,0,0,1-.79,2.3,2.3,0,0,0,.32-1.21,2.12,2.12,0,0,0-.37-1.27,2.25,2.25,0,0,0-1.09-.78,2.09,2.09,0,0,1-.56-.28.62.62,0,0,1-.21-.52.73.73,0,0,1,.22-.54A.7.7,0,0,1,96.63,106.21Z"/><path class="cls-4" d="M98.37,99.15l-1.08.41v3.49l1.1.41a4,4,0,0,1,.87.41.67.67,0,0,1,.23.56.82.82,0,0,1-.24.58.74.74,0,0,1-.55.25,1.13,1.13,0,0,1-.36-.06l-.52-.19-5.58-2.2-.58-.22a4.16,4.16,0,0,1-.56-.28,1.16,1.16,0,0,1-.36-.4,1.36,1.36,0,0,1,0-1.2,1.07,1.07,0,0,1,.36-.4,2.55,2.55,0,0,1,.46-.25l.67-.26,5.54-2.24a2.73,2.73,0,0,1,.92-.27.8.8,0,0,1,.55.25.86.86,0,0,1,.25.6.72.72,0,0,1-.08.35.69.69,0,0,1-.2.25,1.43,1.43,0,0,1-.38.21ZM96,102.6V100l-3.54,1.29Z"/><path class="cls-4" d="M91.65,93.75l5.06-3.35H91.6a1.16,1.16,0,0,1-.75-.21.81.81,0,0,1,0-1.17,1.1,1.1,0,0,1,.75-.22h6.76c.75,0,1.13.31,1.13.94a1.32,1.32,0,0,1-.07.42,1.25,1.25,0,0,1-.21.35,2.67,2.67,0,0,1-.35.31l-.4.28-5,3.26h5a1.06,1.06,0,0,1,.74.23.8.8,0,0,1,0,1.18,1.09,1.09,0,0,1-.74.22H91.86a1.94,1.94,0,0,1-.66-.09,1,1,0,0,1-.6-.93,1,1,0,0,1,.08-.4,1,1,0,0,1,.2-.29,2,2,0,0,1,.34-.26Z"/><rect class="cls-5" x="75.66" y="78.73" width="40.63" height="52.44" rx="9.31"/><path class="cls-6" d="M165.26,28.83s-26.56,2.36-44.86,38.9c0,0-4.86-2.28-9.54-1.74,0,0,25.8-50.76,78.84-42.36s57.31,65.76,56.13,72c0,0-7.5-78.89-79.57-67"/><path class="cls-6" d="M171.51,177s-34.37-6.25-48.34-34.48c0,0-4.62,2.73-9.33,2.63,0,0,30.48,48.1,82.49,34.72s51.26-71.39,49.5-77.49c0,0,1.47,73.29-73.31,74.77"/></g></g></svg>