<svg xmlns="http://www.w3.org/2000/svg" viewBox="0 0 325.04 204.09"><defs><style>.cls-1,.cls-4,.cls-6{fill:none;}.cls-2{fill:#4c4c4d;}.cls-3{fill:#333;}.cls-4{stroke:#212121;stroke-width:0.5px;}.cls-4,.cls-6{stroke-miterlimit:10;}.cls-5{fill:#3d3d3d;}.cls-6{stroke:#383838;stroke-width:2px;}.cls-7{fill:#2b2b2b;}</style></defs><g id="Layer_2" data-name="Layer 2"><g id="Layer_1-2" data-name="Layer 1"><rect class="cls-1" width="325.04" height="204.09" rx="12"/><path class="cls-2" d="M116.6,9.4c-.79.43-1.58.88-2.36,1.34s-1.54.94-2.3,1.43c-44.78,28.67-44.12,94.51.3,123.71l32.3,21.22,67,44.06a15,15,0,0,0,23.24-13.8l-6.58-80-3.17-38.52C220.7,15.91,163.21-16.19,116.6,9.4Zm106.65,185a9.3,9.3,0,1,1,3.25-12.75A9.3,9.3,0,0,1,223.25,194.35Z"/><circle class="cls-3" cx="147.18" cy="66.21" r="51.41"/><circle class="cls-4" cx="147.18" cy="66.21" r="44.72"/><path class="cls-5" d="M95.57,101.25a65.79,65.79,0,0,0,17,17.09,63.17,63.17,0,0,0,21.67,9.56,61.69,61.69,0,0,0,73.34-43.55,62.91,62.91,0,0,0,2-23.6,65.85,65.85,0,0,0-6.88-23.08A59.07,59.07,0,0,1,212,60.4a61.58,61.58,0,0,1-.63,24.92,62.76,62.76,0,0,1-10.47,22.85,63.17,63.17,0,0,1-42.53,25.25,62.93,62.93,0,0,1-25.08-1.75,61.68,61.68,0,0,1-22.17-11.38A58.91,58.91,0,0,1,95.57,101.25Z"/><circle class="cls-6" cx="218.51" cy="186.35" r="9.3"/><circle class="cls-7" cx="147.18" cy="66.21" r="44.73"/><path class="cls-7" d="M233.34,169.41a12.63,12.63,0,0,1,7.46-.88,8.85,8.85,0,0,1,3.58,1.71,8,8,0,0,1,2.32,3.32,9.3,9.3,0,0,1,.52,4,13.8,13.8,0,0,1-.95,3.87,18.18,18.18,0,0,1-4.56,6.35,19.6,19.6,0,0,1-6.7,4,13.86,13.86,0,0,1-7.84.45,8.94,8.94,0,0,1-3.57-1.83,7.81,7.81,0,0,1-2.2-3.32,9.87,9.87,0,0,1,.78-7.46,10.24,10.24,0,0,0,.14,7.1,6.65,6.65,0,0,0,2.11,2.66,7.88,7.88,0,0,0,3.1,1.33,12.7,12.7,0,0,0,6.83-.71,18,18,0,0,0,6-3.66,16.67,16.67,0,0,0,4.16-5.6,11.74,11.74,0,0,0,.95-3.3,8.34,8.34,0,0,0-.26-3.34,6.7,6.7,0,0,0-1.71-2.84,7.62,7.62,0,0,0-3-1.74A13.66,13.66,0,0,0,233.34,169.41Z"/></g></g></svg>