<svg xmlns="http://www.w3.org/2000/svg" viewBox="0 0 325.04 204.09"><defs><style>.cls-1{fill:none;}.cls-2{fill:#232323;}.cls-3{fill:#4c4c4d;}.cls-4{fill:#333;}.cls-5{fill:#1e1e1e;}.cls-6{fill:#3a3a3a;}</style></defs><g id="Layer_2" data-name="Layer 2"><g id="Layer_1-2" data-name="Layer 1"><rect class="cls-1" width="325.04" height="204.09" rx="12"/><path class="cls-2" d="M219.52,151.54s27.11-29.06,45.11-9.26c0,0,9.64-24.17-19-52.85"/><rect class="cls-3" x="84.45" y="25.6" width="152.89" height="152.89" rx="14.65" transform="translate(-25.03 143.66) rotate(-45)"/><rect class="cls-4" x="91.14" y="34.81" width="134.48" height="134.48" rx="11.27" transform="translate(-25.77 141.88) rotate(-45)"/><path class="cls-5" d="M195.74,111.49a12,12,0,0,0,.52,1.57l-2.17-2.17a.86.86,0,0,1,.29-.14A1.09,1.09,0,0,1,195.74,111.49Z"/><path class="cls-5" d="M203.52,98a68.7,68.7,0,0,0-3.29,19l-2.09-2.09a71.12,71.12,0,0,1,3-16.55,12.42,12.42,0,0,0-3.56,3.29,1.09,1.09,0,1,1-1.76-1.28,14.56,14.56,0,0,1,5.92-4.79,4.73,4.73,0,0,0,0-.84,41.91,41.91,0,0,0-6.21-17.12,13.72,13.72,0,0,1-2.14,2,1.1,1.1,0,0,1-1.47-.21,1.09,1.09,0,0,1,.15-1.53,11.05,11.05,0,0,0,2.06-2,4.3,4.3,0,0,0-.63-.47A80.4,80.4,0,0,1,177.2,62.14a3.2,3.2,0,0,0-.27-.25A11.14,11.14,0,0,0,183,80.2a1.1,1.1,0,0,1,.87,1.07,1.08,1.08,0,0,1-1.08,1.09.78.78,0,0,1-.22,0A13.34,13.34,0,0,1,175,60.78,42.74,42.74,0,0,0,149.81,59a12.39,12.39,0,0,1-.23,7.37l-1.75-1.76a10.31,10.31,0,0,0-.12-5.05c-1.25.36-2.48.78-3.68,1.26l-1.68-1.68a44.72,44.72,0,0,1,34-.16,6.72,6.72,0,0,1,2.41,1.66,78.23,78.23,0,0,0,15.8,12.93,7.39,7.39,0,0,1,2.29,2.23,44.23,44.23,0,0,1,7,18.68A8.12,8.12,0,0,1,203.52,98Z"/><path class="cls-5" d="M142.23,108.26h0a1,1,0,0,1-.59-.6Z"/><path class="cls-5" d="M136.21,102.24a1.12,1.12,0,0,1-.2.18,1.09,1.09,0,0,1-1.51-.33,13.85,13.85,0,0,1-1.28-2.84Z"/><path class="cls-5" d="M134.45,117.58a1.08,1.08,0,0,0-1.53.14c-2,2.43-.45,7,3.58,10.29a12,12,0,0,0,7.26,3.06,4.44,4.44,0,0,0,3.52-1.44c1-1.26,1.17-3.07.37-5.11a13.46,13.46,0,0,0-4-5.19,1.09,1.09,0,0,0-1.46,1.63l.07.05a11.35,11.35,0,0,1,3.32,4.3,3,3,0,0,1,0,2.93c-1.05,1.25-4.47.78-7.71-1.9s-4.33-6-3.29-7.23a1.08,1.08,0,0,0-.16-1.53Z"/><path class="cls-5" d="M173.41,140.33a1.09,1.09,0,0,1-1.09,1.09,31.61,31.61,0,0,0-12,2.78l-.64.26a6.61,6.61,0,0,1-2.49.48h-.4a44.68,44.68,0,0,1-40.14-32.27,12.74,12.74,0,0,1-.48-4.34c.07-1.36.12-2.74.12-4.1a74.07,74.07,0,0,0-.55-8.93,13.23,13.23,0,0,1,.2-4.39A44.67,44.67,0,0,1,118,84l1.69,1.69a42.43,42.43,0,0,0-1.63,5.65,11,11,0,0,0-.17,3.66,74.33,74.33,0,0,1,.56,9.19c0,1.4,0,2.83-.12,4.23a10.72,10.72,0,0,0,.4,3.61,42.48,42.48,0,0,0,37.94,30.67,13.28,13.28,0,0,1,.51-2.8,12.46,12.46,0,0,1,8.36-8.37l1.8,1.81a10.34,10.34,0,0,0-8.46,9.06l.59-.25a33.81,33.81,0,0,1,12.78-2.94h.06A1.1,1.1,0,0,1,173.41,140.33Z"/><path class="cls-5" d="M126.2,58.34a2.16,2.16,0,0,0-.59,1.16,4.72,4.72,0,0,0,0,1.46,13.32,13.32,0,0,0,.33,1.7q.24.9.48,1.86c.15.65.27,1.3.37,2a8.29,8.29,0,0,1,0,2,6.35,6.35,0,0,1-.5,2,6,6,0,0,1-1.25,1.85l-.09.1a7.82,7.82,0,0,1-1.9,1.43,5.94,5.94,0,0,1-1.83.6,4.82,4.82,0,0,1-1.74-.05,6.88,6.88,0,0,1-1.6-.55,8.13,8.13,0,0,1-1.42-.86,13.67,13.67,0,0,1-1.18-1l-.11-.12a9.74,9.74,0,0,1-1.54-1.92,6.59,6.59,0,0,1-.74-1.81,5,5,0,0,1-.13-1.65A5.91,5.91,0,0,1,113.1,65a6.32,6.32,0,0,1,.61-1.22,6.1,6.1,0,0,1,.76-.94,2.36,2.36,0,0,1,.85-.57,2,2,0,0,1,.85-.12,2.14,2.14,0,0,1,.81.23,3.34,3.34,0,0,1,.72.53,3,3,0,0,1,.52.72,2.45,2.45,0,0,1,.3.86,2.06,2.06,0,0,1-.06.92,2,2,0,0,1-.51.87,2.25,2.25,0,0,0-.79,1.59,2.18,2.18,0,0,0,.75,1.38,4.06,4.06,0,0,0,.73.56,1.55,1.55,0,0,0,.77.24,1.88,1.88,0,0,0,.84-.18,3.26,3.26,0,0,0,.93-.68,3.15,3.15,0,0,0,.82-1.37,5.37,5.37,0,0,0,.19-1.62,10.82,10.82,0,0,0-.21-1.81c-.13-.63-.27-1.27-.41-1.91s-.27-1.3-.37-1.95a9.55,9.55,0,0,1-.11-1.91,5.82,5.82,0,0,1,.35-1.81,4.81,4.81,0,0,1,1.06-1.63l.19-.19a8.32,8.32,0,0,1,2.4-1.73,4.2,4.2,0,0,1,2.25-.38,5.34,5.34,0,0,1,2.22.84,13.14,13.14,0,0,1,2.28,1.88l.3.3a8.41,8.41,0,0,1,1.58,2,6,6,0,0,1,.65,1.83,4,4,0,0,1,0,1.59,5.14,5.14,0,0,1-.47,1.32,5.08,5.08,0,0,1-.65,1,7.26,7.26,0,0,1-.58.65,2.13,2.13,0,0,1-.76.5A2.07,2.07,0,0,1,131,65a2.2,2.2,0,0,1-.84-.23,2.71,2.71,0,0,1-.78-.55,2.23,2.23,0,0,1-.44-.67,2.54,2.54,0,0,1-.22-.78,2.2,2.2,0,0,1,0-.77,1.25,1.25,0,0,1,.32-.59,2.76,2.76,0,0,0,1-1.67,1.84,1.84,0,0,0-.63-1.38,6.71,6.71,0,0,0-.64-.57,1.52,1.52,0,0,0-.72-.33,1.44,1.44,0,0,0-.84.12A3.52,3.52,0,0,0,126.2,58.34Z"/><path class="cls-5" d="M146.11,70.07c.31.31.61.64.9,1a3.61,3.61,0,0,1,.65,1.06,2,2,0,0,1,.13,1.11,2.19,2.19,0,0,1-.68,1.16,2.27,2.27,0,0,1-1.15.68,2,2,0,0,1-1.12-.13,4.27,4.27,0,0,1-1.06-.65c-.34-.29-.66-.59-1-.9l-1.19-1.18L131.31,82.5c-.33.34-.67.65-1,1a3.45,3.45,0,0,1-1,.66,2,2,0,0,1-1.13.07,3.43,3.43,0,0,1-2-2,1.93,1.93,0,0,1,.07-1.12,3.37,3.37,0,0,1,.66-1c.3-.34.62-.68,1-1l10.31-10.31-1.18-1.19c-.31-.31-.61-.63-.9-1a4.27,4.27,0,0,1-.65-1.06,2,2,0,0,1-.12-1.11,2.11,2.11,0,0,1,.67-1.15,2.15,2.15,0,0,1,1.16-.69,2,2,0,0,1,1.11.13,3.84,3.84,0,0,1,1.06.65c.33.29.66.6,1,.9Z"/><path class="cls-5" d="M148.13,77.44q.5-.5,1-.93a3.51,3.51,0,0,1,1.1-.6,2.09,2.09,0,0,1,1.19,0,2.89,2.89,0,0,1,1.29.83,2.79,2.79,0,0,1,.82,1.28,2.18,2.18,0,0,1,0,1.19,3.77,3.77,0,0,1-.61,1.1,12.6,12.6,0,0,1-.93,1L141.07,92.21c-.35.34-.69.66-1,.94a3.43,3.43,0,0,1-1.09.62,2.09,2.09,0,0,1-1.19,0,3.06,3.06,0,0,1-1.28-.83,2.89,2.89,0,0,1-.83-1.29,2,2,0,0,1,0-1.18,3.36,3.36,0,0,1,.6-1.09,13,13,0,0,1,.94-1Z"/><path class="cls-5" d="M163.13,86.92A10.37,10.37,0,0,1,165,89.41a7.54,7.54,0,0,1,.81,2.31,5.72,5.72,0,0,1,0,2.07,7.59,7.59,0,0,1-1.5,3.2,11.58,11.58,0,0,1-.9,1,3.15,3.15,0,0,1-.45.39,1.33,1.33,0,0,1-.69.28,1.86,1.86,0,0,1-.94-.15,4.1,4.1,0,0,1-1.24-.91c-.16-.16-.34-.36-.55-.61a3.61,3.61,0,0,1-.52-.83,2.12,2.12,0,0,1-.21-.91,1.17,1.17,0,0,1,.4-.86,10.7,10.7,0,0,0,1-1.2,3.6,3.6,0,0,0,.57-1.12,1.89,1.89,0,0,0,0-1.08,2.59,2.59,0,0,0-.71-1.08A2,2,0,0,0,159,89.3a2,2,0,0,0-1,.07,2.67,2.67,0,0,0-.94.57l-7.36,7.36a3.72,3.72,0,0,0-.71,1.08,2.44,2.44,0,0,0-.17,1.06,1.8,1.8,0,0,0,.6,1.16,2.35,2.35,0,0,0,1.12.67,2.19,2.19,0,0,0,1.16-.07,3.78,3.78,0,0,0,1.15-.61,8.36,8.36,0,0,0,1.12-1,2.25,2.25,0,0,1,.42-.3,1.07,1.07,0,0,1,.61-.08,2.63,2.63,0,0,1,.88.36,6.47,6.47,0,0,1,1.21,1,3.91,3.91,0,0,1,.91,1.23,2,2,0,0,1,.2.91,1.25,1.25,0,0,1-.19.6,2.59,2.59,0,0,1-.23.28,8,8,0,0,1-2.71,1.85,6.72,6.72,0,0,1-2.91.49,7.63,7.63,0,0,1-2.94-.81,10.61,10.61,0,0,1-2.75-2c-.14-.14-.35-.38-.64-.71a8.75,8.75,0,0,1-1.61-2.89,5.51,5.51,0,0,1-.28-2,6,6,0,0,1,.52-2.18,7.38,7.38,0,0,1,1.64-2.29l6.48-6.49a7.89,7.89,0,0,1,1.92-1.45,6.72,6.72,0,0,1,1.88-.66,5.56,5.56,0,0,1,1.77,0,8.24,8.24,0,0,1,1.61.39A10.24,10.24,0,0,1,163.13,86.92Z"/><path class="cls-5" d="M168.45,97.72q.51-.51,1-.93a3.62,3.62,0,0,1,1.07-.63,2,2,0,0,1,1.12-.07,2.41,2.41,0,0,1,1.18.72,2.58,2.58,0,0,1,.75,1.2,2,2,0,0,1-.06,1.14,3.31,3.31,0,0,1-.62,1.08,12.44,12.44,0,0,1-.93,1l-4.18,4.18,1.33,1.32,2.73-1.19,1.17-.51,1.2-.51,1.13-.48c.37-.16.7-.29,1-.4l.92-.33a4.31,4.31,0,0,1,.9-.17,2.65,2.65,0,0,1,.85.1,2,2,0,0,1,.75.47,3,3,0,0,1,.55.77,2.47,2.47,0,0,1,.27.89,2.28,2.28,0,0,1-.1.93,2.19,2.19,0,0,1-.54.85,4.48,4.48,0,0,1-.81.62,6.91,6.91,0,0,1-1.09.54l-7,2.86a4,4,0,0,1,.35,1.79,5.09,5.09,0,0,1-.12.89,5.54,5.54,0,0,1-.35,1,7.57,7.57,0,0,1-.65,1.14,10,10,0,0,1-1,1.23l-1.65,1.65a.34.34,0,0,0-.12.3,2.28,2.28,0,0,1,0,.37,1.42,1.42,0,0,1-.2.73,1.67,1.67,0,0,1-.29.36,1.83,1.83,0,0,1-1.72.58,2.5,2.5,0,0,1-.85-.36,5.23,5.23,0,0,1-.77-.64,3.49,3.49,0,0,1-.66-.89,3.22,3.22,0,0,1-.37-1.08,2.66,2.66,0,0,1,.07-1.12,2.38,2.38,0,0,1,.63-1l2.4-2.39a8.56,8.56,0,0,0,.86-1,3,3,0,0,0,.49-1,2,2,0,0,0-.05-1,2.75,2.75,0,0,0-.72-1.08l-1.3-1.3-3.91,3.9c-.34.34-.68.65-1,.94a3.54,3.54,0,0,1-1.08.63,2,2,0,0,1-1.14.06,2.56,2.56,0,0,1-1.21-.75,2.41,2.41,0,0,1-.72-1.18,1.94,1.94,0,0,1,.08-1.12,3.54,3.54,0,0,1,.63-1.08c.29-.35.6-.69.94-1Z"/><path class="cls-5" d="M190.66,114.63c.31.31.61.63.91,1a4,4,0,0,1,.66,1,2.06,2.06,0,0,1,.13,1.12,2.15,2.15,0,0,1-.68,1.17,2.12,2.12,0,0,1-1.16.68,2.18,2.18,0,0,1-1.13-.13,3.79,3.79,0,0,1-1-.67c-.34-.29-.67-.59-1-.9l-2.76-2.77-3.16,3.16,1.46,1.47c.31.31.61.63.91,1a3.57,3.57,0,0,1,.65,1,2,2,0,0,1,.12,1.08,2.15,2.15,0,0,1-.66,1.12,2.08,2.08,0,0,1-1.12.66,2.06,2.06,0,0,1-1.07-.13,3.37,3.37,0,0,1-1-.65c-.34-.29-.66-.59-1-.9l-1.46-1.47-3.35,3.35,2.77,2.76c.31.31.61.64.9,1a3.79,3.79,0,0,1,.67,1.05,2,2,0,0,1,.14,1.11,2.13,2.13,0,0,1-.67,1.16,2.22,2.22,0,0,1-1.19.69,2.18,2.18,0,0,1-1.13-.13,4,4,0,0,1-1.06-.67c-.34-.29-.66-.59-1-.89l-4.55-4.55a2.67,2.67,0,0,1-.78-1.24,1.89,1.89,0,0,1,.1-1.13,3.37,3.37,0,0,1,.66-1c.3-.34.61-.67.95-1L181.69,111c.34-.34.67-.65,1-1a3.49,3.49,0,0,1,1-.66,1.89,1.89,0,0,1,1.13-.1,2.67,2.67,0,0,1,1.24.78Z"/><path class="cls-5" d="M193.19,122.46c.33-.34.67-.65,1-.95a3.37,3.37,0,0,1,1-.66,2,2,0,0,1,1.11-.08,2.68,2.68,0,0,1,1.23.78l3.84,3.83a9.69,9.69,0,0,1,2,3.16,9,9,0,0,1,.36,1.51,5.87,5.87,0,0,1,0,1.67,6.11,6.11,0,0,1-.61,1.77,7.45,7.45,0,0,1-1.37,1.81,5.83,5.83,0,0,1-.53.46,4.83,4.83,0,0,1-.82.52,7.61,7.61,0,0,1-1.08.45A4.69,4.69,0,0,1,198,137a5.29,5.29,0,0,1-1.45-.13,5.92,5.92,0,0,1-1.6-.62,8.33,8.33,0,0,1,.4,1.25,4.75,4.75,0,0,1,.09,1.42,4.84,4.84,0,0,1-.43,1.53,5.18,5.18,0,0,1-1.11,1.54l-1.65,1.65a.55.55,0,0,0-.16.3,1.62,1.62,0,0,0,0,.3,1.54,1.54,0,0,1-.16.81,2.89,2.89,0,0,1-.28.38,1.94,1.94,0,0,1-.85.52,2.18,2.18,0,0,1-.88,0,2.55,2.55,0,0,1-.84-.35,4.77,4.77,0,0,1-.76-.6,3.77,3.77,0,0,1-.65-.9,3.58,3.58,0,0,1-.37-1.07,2.76,2.76,0,0,1,.05-1.11,2.25,2.25,0,0,1,.6-1l2.46-2.46a7.83,7.83,0,0,0,.88-1,2.79,2.79,0,0,0,.47-1,1.81,1.81,0,0,0-.06-1,2.89,2.89,0,0,0-.73-1.09l-1.3-1.3-3.88,3.88c-.34.34-.68.67-1,1a3.61,3.61,0,0,1-1.05.68,1.89,1.89,0,0,1-1.13.08,2.76,2.76,0,0,1-1.25-.8,2.68,2.68,0,0,1-.78-1.23,1.94,1.94,0,0,1,.09-1.12,3.75,3.75,0,0,1,.67-1.06c.31-.34.63-.68,1-1Zm.65,9.52a3.4,3.4,0,0,0,1.33.77,2.6,2.6,0,0,0,.65.11,2.14,2.14,0,0,0,.74-.07,3,3,0,0,0,.81-.33,4.64,4.64,0,0,0,.84-.66,3.52,3.52,0,0,0,.59-.77,2.76,2.76,0,0,0,.29-.74,2.09,2.09,0,0,0,0-.7A2.36,2.36,0,0,0,199,129a3.53,3.53,0,0,0-.74-1.25l-1.67-1.67-4.35,4.34Z"/><rect class="cls-6" x="160.23" y="152.91" width="101.52" height="3.5" rx="1.75" transform="translate(-47.56 194.49) rotate(-45)"/></g></g></svg>