<svg xmlns="http://www.w3.org/2000/svg" viewBox="0 0 325.04 204.09"><defs><style>.cls-1{fill:#353535;}.cls-2{fill:#4f4f4f;}.cls-3{fill:#282828;}.cls-4{fill:#1e1e1e;}</style></defs><g id="Layer_2" data-name="Layer 2"><g id="Layer_1-2" data-name="Layer 1"><rect class="cls-1" width="325.04" height="204.09" rx="12"/><rect class="cls-2" x="27.16" y="29.32" width="69.12" height="83.04"/><circle class="cls-3" cx="61.72" cy="75.18" r="16.32"/><path class="cls-3" d="M89.56,111.3c0,.47,0,.94,0,1.4H33.92c0-.46,0-.93,0-1.4a27.78,27.78,0,0,1,14-24.14,16.32,16.32,0,0,0,27.72,0A27.78,27.78,0,0,1,89.56,111.3Z"/><rect class="cls-2" x="111.4" y="29.32" width="90.72" height="11.52"/><rect class="cls-2" x="111.4" y="53.1" width="134.64" height="11.52"/><rect class="cls-2" x="111.4" y="76.88" width="70.2" height="11.52"/><rect class="cls-2" x="111.4" y="100.66" width="110.16" height="11.52"/><rect class="cls-2" x="27.16" y="156.64" width="2.88" height="24.84"/><rect class="cls-2" x="33.16" y="156.64" width="4.32" height="24.84"/><rect class="cls-2" x="41.08" y="156.64" width="2.16" height="24.84"/><rect class="cls-2" x="53.56" y="156.64" width="3.84" height="24.84"/><rect class="cls-2" x="61.72" y="156.64" width="1.44" height="24.84"/><rect class="cls-2" x="66.94" y="156.64" width="1.44" height="24.84"/><rect class="cls-2" x="75.04" y="156.64" width="3.42" height="24.84"/><rect class="cls-2" x="81.25" y="156.64" width="1.71" height="24.84"/><rect class="cls-2" x="71.17" y="156.64" width="0.72" height="24.84"/><rect class="cls-2" x="45.4" y="156.64" width="5.28" height="24.84"/><rect class="cls-2" x="139.12" y="156.64" width="2.88" height="24.84" transform="translate(281.12 338.12) rotate(-180)"/><rect class="cls-2" x="131.68" y="156.64" width="4.32" height="24.84" transform="translate(267.68 338.12) rotate(-180)"/><rect class="cls-2" x="125.92" y="156.64" width="2.16" height="24.84" transform="translate(254 338.12) rotate(-180)"/><rect class="cls-2" x="111.76" y="156.64" width="3.84" height="24.84" transform="translate(227.36 338.12) rotate(-180)"/><rect class="cls-2" x="106" y="156.64" width="1.44" height="24.84" transform="translate(213.44 338.12) rotate(-180)"/><rect class="cls-2" x="100.78" y="156.64" width="1.44" height="24.84" transform="translate(203 338.12) rotate(-180)"/><rect class="cls-2" x="90.7" y="156.64" width="3.42" height="24.84" transform="translate(184.82 338.12) rotate(-180)"/><rect class="cls-2" x="86.2" y="156.64" width="1.71" height="24.84" transform="translate(174.11 338.12) rotate(-180)"/><rect class="cls-2" x="97.27" y="156.64" width="0.72" height="24.84" transform="translate(195.26 338.12) rotate(-180)"/><rect class="cls-2" x="118.48" y="156.64" width="5.28" height="24.84" transform="translate(242.24 338.12) rotate(-180)"/><path class="cls-4" d="M238.22,173.48H240v8h-1.76Z"/><path class="cls-4" d="M241.49,173.48h1.9a5.15,5.15,0,0,1,2,.33,2.55,2.55,0,0,1,1.23,1.22,5.28,5.28,0,0,1,.46,2.41,6,6,0,0,1-.28,1.92,3.49,3.49,0,0,1-.74,1.31,2.23,2.23,0,0,1-1,.65,5.7,5.7,0,0,1-1.43.16h-2.11Zm1.76,1.37v5.26h.3a1.63,1.63,0,0,0,.95-.24,1.57,1.57,0,0,0,.53-.81,5.32,5.32,0,0,0,.2-1.69,4.29,4.29,0,0,0-.22-1.57,1.47,1.47,0,0,0-.55-.75,1.78,1.78,0,0,0-.91-.2Z"/><path class="cls-4" d="M250.17,177.8h2.38v1.29h-2.38Z"/><path class="cls-4" d="M258.19,173.41h1.34v6.76h1.32v1.31h-4.43v-1.31h1.35v-4.72a5,5,0,0,1-1.35,1v-1.56A5.23,5.23,0,0,0,258.19,173.41Z"/><path class="cls-4" d="M263.33,176.3l-1.6-.32c.26-1.75,1.15-2.62,2.65-2.62a2.42,2.42,0,0,1,1.86.68,2.33,2.33,0,0,1,.63,1.65,3.3,3.3,0,0,1-.7,2,10.77,10.77,0,0,1-2.64,2.26H267l-.13,1.56h-5.12v-1.56a18.79,18.79,0,0,0,2.74-2.66,2.57,2.57,0,0,0,.55-1.48q0-1-.75-1a.7.7,0,0,0-.66.39A3.14,3.14,0,0,0,263.33,176.3Z"/><path class="cls-4" d="M269.43,175.7l-1.52-.28a2.54,2.54,0,0,1,2.63-2.06,2.42,2.42,0,0,1,1.74.58,2,2,0,0,1,.63,1.56,1.8,1.8,0,0,1-1.19,1.78,1.82,1.82,0,0,1,1.34,1.91,2.21,2.21,0,0,1-.73,1.8,2.85,2.85,0,0,1-1.88.61,3,3,0,0,1-1.79-.54,2.56,2.56,0,0,1-.93-1.82l1.55-.26c.08.79.42,1.19,1,1.19a.85.85,0,0,0,.68-.28,1.22,1.22,0,0,0,.25-.82c0-.73-.41-1.09-1.23-1.09h-.48v-1.29H270a2,2,0,0,0,.62-.08.71.71,0,0,0,.37-.3,1.16,1.16,0,0,0,.15-.62c0-.65-.27-1-.81-1S269.58,175.05,269.43,175.7Z"/><path class="cls-4" d="M278.93,173.36h1.91v4.87h.9v1.37h-.9v1.88h-1.76V179.6H276.2v-1.37Zm.29,5V175l-1.77,3.3Z"/><path class="cls-4" d="M283.08,173.48h4.28l-.17,1.57h-2.83l-.1,1.8a1.59,1.59,0,0,1,1.37-.68,2.07,2.07,0,0,1,1.5.62,2.68,2.68,0,0,1,.65,2,2.77,2.77,0,0,1-.75,2.11,3,3,0,0,1-3.76.1,2.39,2.39,0,0,1-.82-1.65l1.59-.26c.09.73.44,1.09,1,1.09s1-.43,1-1.29a1.57,1.57,0,0,0-.26-.93.89.89,0,0,0-.76-.36.86.86,0,0,0-.87.63L282.8,178Z"/><path class="cls-4" d="M293.92,175.49l-1.42.42c-.13-.85-.46-1.27-1-1.27a.87.87,0,0,0-.79.51,5.9,5.9,0,0,0-.3,2.19,1.6,1.6,0,0,1,1.47-.91,1.94,1.94,0,0,1,1.49.68,3.12,3.12,0,0,1-.11,3.82,2.52,2.52,0,0,1-1.81.67q-2.65,0-2.66-4a5.56,5.56,0,0,1,.73-3.2,2.37,2.37,0,0,1,2-1,2.32,2.32,0,0,1,1.56.53A2.69,2.69,0,0,1,293.92,175.49Zm-1.65,3.45q0-1.23-.87-1.23c-.61,0-.91.45-.91,1.35a1.56,1.56,0,0,0,.24.95.79.79,0,0,0,.64.32C292,180.33,292.27,179.86,292.27,178.94Z"/><path class="cls-4" d="M295.14,173.48h4.75v1.35a10.67,10.67,0,0,0-1.94,6.65H296a10,10,0,0,1,2.34-6.43H295Z"/></g></g></svg>