<svg xmlns="http://www.w3.org/2000/svg" viewBox="0 0 325.04 204.09"><defs><style>.cls-1{fill:none;}.cls-2{fill:#232323;}.cls-3{fill:#4c4c4d;}.cls-4{fill:#333;}.cls-5,.cls-6{fill:#1e1e1e;}.cls-6{font-size:33.64px;font-family:ConcertOne-Regular, Concert One;}.cls-7{fill:#3a3a3a;}</style></defs><g id="Layer_2" data-name="Layer 2"><g id="Layer_1-2" data-name="Layer 1"><rect class="cls-1" width="325.04" height="204.09" rx="12"/><path class="cls-2" d="M219.52,151.54s27.11-29.06,45.11-9.26c0,0,9.64-24.17-19-52.85"/><rect class="cls-3" x="84.45" y="25.6" width="152.89" height="152.89" rx="14.65" transform="translate(-25.03 143.66) rotate(-45)"/><rect class="cls-4" x="91.14" y="34.81" width="134.48" height="134.48" rx="11.27" transform="translate(-25.77 141.88) rotate(-45)"/><path class="cls-5" d="M195.74,111.49a12,12,0,0,0,.52,1.57l-2.17-2.17a.86.86,0,0,1,.29-.14A1.09,1.09,0,0,1,195.74,111.49Z"/><path class="cls-5" d="M203.52,98a68.7,68.7,0,0,0-3.29,19l-2.09-2.09a71.12,71.12,0,0,1,3-16.55,12.42,12.42,0,0,0-3.56,3.29,1.09,1.09,0,1,1-1.76-1.28,14.56,14.56,0,0,1,5.92-4.79,4.73,4.73,0,0,0,0-.84,41.91,41.91,0,0,0-6.21-17.12,13.72,13.72,0,0,1-2.14,2,1.1,1.1,0,0,1-1.47-.21,1.09,1.09,0,0,1,.15-1.53,11.05,11.05,0,0,0,2.06-2,4.3,4.3,0,0,0-.63-.47A80.4,80.4,0,0,1,177.2,62.14a3.2,3.2,0,0,0-.27-.25A11.14,11.14,0,0,0,183,80.2a1.1,1.1,0,0,1,.87,1.07,1.08,1.08,0,0,1-1.08,1.09.78.78,0,0,1-.22,0A13.34,13.34,0,0,1,175,60.78,42.74,42.74,0,0,0,149.81,59a12.39,12.39,0,0,1-.23,7.37l-1.75-1.76a10.31,10.31,0,0,0-.12-5.05c-1.25.36-2.48.78-3.68,1.26l-1.68-1.68a44.72,44.72,0,0,1,34-.16,6.72,6.72,0,0,1,2.41,1.66,78.23,78.23,0,0,0,15.8,12.93,7.39,7.39,0,0,1,2.29,2.23,44.23,44.23,0,0,1,7,18.68A8.12,8.12,0,0,1,203.52,98Z"/><path class="cls-5" d="M142.23,108.26h0a1,1,0,0,1-.59-.6Z"/><path class="cls-5" d="M136.21,102.24a1.12,1.12,0,0,1-.2.18,1.09,1.09,0,0,1-1.51-.33,13.85,13.85,0,0,1-1.28-2.84Z"/><path class="cls-5" d="M134.45,117.58a1.08,1.08,0,0,0-1.53.14c-2,2.43-.45,7,3.58,10.29a12,12,0,0,0,7.26,3.06,4.44,4.44,0,0,0,3.52-1.44c1-1.26,1.17-3.07.37-5.11a13.46,13.46,0,0,0-4-5.19,1.09,1.09,0,0,0-1.46,1.63l.07.05a11.35,11.35,0,0,1,3.32,4.3,3,3,0,0,1,0,2.93c-1.05,1.25-4.47.78-7.71-1.9s-4.33-6-3.29-7.23a1.08,1.08,0,0,0-.16-1.53Z"/><path class="cls-5" d="M173.41,140.33a1.09,1.09,0,0,1-1.09,1.09,31.61,31.61,0,0,0-12,2.78l-.64.26a6.61,6.61,0,0,1-2.49.48h-.4a44.68,44.68,0,0,1-40.14-32.27,12.74,12.74,0,0,1-.48-4.34c.07-1.36.12-2.74.12-4.1a74.07,74.07,0,0,0-.55-8.93,13.23,13.23,0,0,1,.2-4.39A44.67,44.67,0,0,1,118,84l1.69,1.69a42.43,42.43,0,0,0-1.63,5.65,11,11,0,0,0-.17,3.66,74.33,74.33,0,0,1,.56,9.19c0,1.4,0,2.83-.12,4.23a10.72,10.72,0,0,0,.4,3.61,42.48,42.48,0,0,0,37.94,30.67,13.28,13.28,0,0,1,.51-2.8,12.46,12.46,0,0,1,8.36-8.37l1.8,1.81a10.34,10.34,0,0,0-8.46,9.06l.59-.25a33.81,33.81,0,0,1,12.78-2.94h.06A1.1,1.1,0,0,1,173.41,140.33Z"/><text class="cls-6" transform="translate(109.4 65.89) rotate(45)">STICKER</text><rect class="cls-7" x="160.23" y="152.91" width="101.52" height="3.5" rx="1.75" transform="translate(-47.56 194.49) rotate(-45)"/></g></g></svg>